<?xml version="1.0" encoding="UTF-8"?>
<svg version="1.1" xmlns="http://www.w3.org/2000/svg" width="345" height="345">
<path d="M0 0 C1.4955858 0.72372423 2.99193978 1.44586293 4.48901367 2.16650391 C8.41719117 4.06242954 12.33495859 5.97894619 16.25079346 7.90020752 C20.1286888 9.79863064 24.0156769 11.6782116 27.90234375 13.55859375 C32.3924081 15.7316738 36.88093378 17.90762409 41.36132812 20.10058594 C47.65240748 23.17841809 53.94494771 26.23516727 60.31640625 29.14453125 C61.29375732 29.59393066 62.2711084 30.04333008 63.27807617 30.50634766 C65.01317679 31.29911854 66.75376854 32.08005424 68.5012207 32.84521484 C69.25105225 33.18891113 70.00088379 33.53260742 70.7734375 33.88671875 C71.40427246 34.16604248 72.03510742 34.44536621 72.68505859 34.7331543 C76.17484749 37.12453367 79.09157912 39.81358808 80.08435059 43.99913025 C80.26758561 46.21554804 80.29240272 48.37794931 80.25390625 50.6015625 C80.25631821 51.40483978 80.25873016 52.20811707 80.26121521 53.03573608 C80.26024004 54.72504642 80.24692521 56.41439002 80.22192383 58.10351562 C80.18750266 60.68729997 80.20130683 63.26768144 80.22070312 65.8515625 C80.21380697 67.49741036 80.20413667 69.14324943 80.19140625 70.7890625 C80.19636612 71.55892487 80.20132599 72.32878723 80.20643616 73.12197876 C80.12879307 76.65741779 79.91031758 78.68408663 77.75366211 81.54443359 C74.69504072 83.72570528 73.35189878 83.6836498 69.625 83.0625 C64.38542998 80.9650139 59.1308964 78.63540835 55.625 74.0625 C54.76080777 71.46992331 54.44919068 69.72212293 54.30859375 67.05078125 C54.24575195 65.91479492 54.24575195 65.91479492 54.18164062 64.75585938 C54.14232422 63.97017578 54.10300781 63.18449219 54.0625 62.375 C54.01931641 61.57771484 53.97613281 60.78042969 53.93164062 59.95898438 C53.82572632 57.99368553 53.72487449 56.02811504 53.625 54.0625 C52.83867187 53.82789063 52.05234375 53.59328125 51.2421875 53.3515625 C46.58176609 51.69072118 42.20244828 49.5861378 37.75 47.4375 C36.3424646 46.76328003 36.3424646 46.76328003 34.90649414 46.07543945 C30.20130341 43.8141077 25.51452184 41.52199977 20.85888672 39.16040039 C17.45922703 37.43746875 14.04326872 35.74814906 10.625 34.0625 C9.54105957 33.52560547 8.45711914 32.98871094 7.34033203 32.43554688 C4.24230673 30.90641346 1.13262968 29.40291161 -1.98361206 27.9112854 C-3.23268302 27.30947331 -4.47849414 26.70084228 -5.72073364 26.08505249 C-7.48179 25.21380929 -9.25641065 24.37015424 -11.03125 23.52734375 C-12.06056641 23.028396 -13.08988281 22.52944824 -14.15039062 22.01538086 C-21.33991566 19.89085661 -27.09573615 22.48213626 -33.44140625 25.7109375 C-34.18981277 26.07960937 -34.9382193 26.44828125 -35.70930481 26.828125 C-38.12420343 28.02050256 -40.53072571 29.22882081 -42.9375 30.4375 C-44.60111039 31.26247157 -46.2653398 32.08619596 -47.93017578 32.90869141 C-50.41878175 34.13859464 -52.90685439 35.36947544 -55.39263916 36.60507202 C-63.03629572 40.40435719 -70.73580479 44.07793188 -78.45922852 47.71240234 C-80.77451963 48.81005866 -83.07841404 49.92629431 -85.375 51.0625 C-86.07141602 51.40313477 -86.76783203 51.74376953 -87.48535156 52.09472656 C-90.98598604 53.76643037 -90.98598604 53.76643037 -93.05297852 56.85083008 C-94.41493033 66.20482669 -93.19577304 76.12057801 -92.5625 85.5 C-92.49224609 86.73943359 -92.42199219 87.97886719 -92.34960938 89.25585938 C-92.22875977 91.04540039 -92.22875977 91.04540039 -92.10546875 92.87109375 C-92.03739014 93.94157959 -91.96931152 95.01206543 -91.89916992 96.11499023 C-91.29977252 99.48551879 -90.48646417 101.36841545 -88.375 104.0625 C-85.79722804 105.8022318 -85.79722804 105.8022318 -82.72265625 107.15625 C-81.56660889 107.70555176 -80.41056152 108.25485352 -79.21948242 108.82080078 C-77.95896719 109.40168319 -76.6983027 109.98224181 -75.4375 110.5625 C-74.14174865 111.17177102 -72.84659004 111.7823041 -71.55200195 112.39404297 C-68.17863048 113.98333243 -64.79711329 115.55437624 -61.41247559 117.11950684 C-58.75274626 118.35049414 -56.0963058 119.58848736 -53.43977356 120.82635498 C-48.05263112 123.33652262 -42.65980438 125.83373776 -37.26171875 128.3203125 C-33.73533993 129.94580947 -30.25141047 131.6182319 -26.80078125 133.3984375 C-22.84470525 135.32008901 -20.71835999 135.68298 -16.375 135.0625 C-10.98241726 133.13496536 -10.98241726 133.13496536 -7.375 129.0625 C-8.20257813 128.80726563 -9.03015625 128.55203125 -9.8828125 128.2890625 C-13.8113754 126.90923168 -17.4971598 125.23103821 -21.25 123.4375 C-21.9917749 123.08558594 -22.7335498 122.73367187 -23.49780273 122.37109375 C-29.82826016 119.35384191 -36.11010137 116.24426325 -42.36328125 113.0703125 C-45.15122548 111.66014343 -47.96079002 110.31118246 -50.79296875 108.9921875 C-51.51798584 108.64800781 -52.24300293 108.30382812 -52.98999023 107.94921875 C-54.36998893 107.29527769 -55.75595718 106.65372532 -57.14868164 106.02734375 C-61.74557745 103.82319873 -64.17318777 101.66827596 -66.375 97.0625 C-66.88090866 94.18227805 -66.89148026 91.41717406 -66.8125 88.5 C-66.81958984 87.75814453 -66.82667969 87.01628906 -66.83398438 86.25195312 C-66.78025112 81.61022682 -66.19197198 78.92308231 -63.375 75.0625 C-61.16113281 73.50439453 -61.16113281 73.50439453 -58.578125 72.1953125 C-57.62615234 71.70522705 -56.67417969 71.2151416 -55.69335938 70.71020508 C-54.68080078 70.2077124 -53.66824219 69.70521973 -52.625 69.1875 C-51.59181641 68.66373779 -50.55863281 68.13997559 -49.49414062 67.6003418 C-46.46224569 66.07140724 -43.42048815 64.56413775 -40.375 63.0625 C-39.57126953 62.6607959 -38.76753906 62.2590918 -37.93945312 61.84521484 C-22.20591244 54.00318277 -22.20591244 54.00318277 -15.69360352 55.80395508 C-6.61445172 59.12818044 2.02368087 63.53022443 10.6763916 67.81826782 C14.97235629 69.94688063 19.27694611 72.05787658 23.58203125 74.16796875 C24.43787811 74.58773483 25.29372498 75.00750092 26.17550659 75.43998718 C34.94528499 79.72949916 43.79331036 83.83985385 52.68188477 87.87695312 C71.83769607 96.63286593 71.83769607 96.63286593 76.625 102.0625 C78.6300476 107.85386518 76.83372305 113.80464923 75.625 119.625 C75.39570801 120.73399658 75.16641602 121.84299316 74.93017578 122.9855957 C67.13921018 159.16828945 48.76016345 193.40633961 19.125 216.375 C18.52969482 216.83865967 17.93438965 217.30231934 17.32104492 217.7800293 C10.65644781 222.90256363 3.72423882 227.56826446 -3.375 232.0625 C-4.36628906 232.70832031 -5.35757813 233.35414063 -6.37890625 234.01953125 C-12.66995214 237.84069284 -18.04243589 239.7976121 -25.375 238.0625 C-30.41139747 235.92265132 -34.86191508 233.11657536 -39.375 230.0625 C-40.45007813 229.33909424 -40.45007813 229.33909424 -41.546875 228.60107422 C-51.93755791 221.52690023 -61.40263682 213.85490174 -70.375 205.0625 C-71.15101562 204.32515625 -71.92703125 203.5878125 -72.7265625 202.828125 C-74.32407371 201.28789507 -75.85962077 199.68360336 -77.375 198.0625 C-77.375 197.4025 -77.375 196.7425 -77.375 196.0625 C-78.035 196.0625 -78.695 196.0625 -79.375 196.0625 C-80.65258789 194.6640625 -80.65258789 194.6640625 -82.09765625 192.6875 C-82.89913086 191.59248169 -82.89913086 191.59248169 -83.71679688 190.4753418 C-84.56854492 189.28098511 -84.56854492 189.28098511 -85.4375 188.0625 C-86.01951172 187.24885986 -86.60152344 186.43521973 -87.20117188 185.59692383 C-107.44000962 156.86480315 -107.44000962 156.86480315 -106.375 144.0625 C-105.3125 142.1875 -105.3125 142.1875 -103.375 141.0625 C-94.01329987 141.68348887 -82.83786456 146.76086507 -76.375 153.6875 C-73.33774062 157.67731888 -71.08871818 162.15545015 -68.71166992 166.55688477 C-64.71087449 173.68964974 -59.12599652 179.31957789 -53.375 185.0625 C-52.52292969 185.92230469 -51.67085938 186.78210938 -50.79296875 187.66796875 C-42.9288019 195.45590781 -34.68463703 202.09575432 -25.375 208.0625 C-24.38113281 208.71412109 -24.38113281 208.71412109 -23.3671875 209.37890625 C-20.31102217 210.42759043 -18.47567704 209.95323995 -15.375 209.0625 C-12.70388061 207.66172815 -10.27003965 205.99402181 -7.8125 204.25 C-7.11431152 203.76080078 -6.41612305 203.27160156 -5.69677734 202.76757812 C21.2339353 183.47795733 40.67646427 155.65211122 47.625 123.0625 C47.68956879 121.64715222 47.71111039 120.22912311 47.6875 118.8125 C47.6565625 116.95625 47.6565625 116.95625 47.625 115.0625 C29.16184762 105.13074592 10.35296845 96.02123191 -8.85546875 87.62109375 C-10.81314898 86.75415212 -12.76164357 85.8609166 -14.66015625 84.87109375 C-17.66404817 83.45468002 -20.10824518 83.73582452 -23.375 84.0625 C-26.16968501 85.18820499 -28.7726198 86.54838788 -31.375 88.0625 C-28.83453409 91.02300419 -26.0470779 92.32046213 -22.51953125 93.91796875 C-21.34688721 94.45421875 -20.17424316 94.99046875 -18.96606445 95.54296875 C-18.34849274 95.82188965 -17.73092102 96.10081055 -17.09463501 96.38818359 C-13.90026838 97.83168789 -10.71627701 99.2977514 -7.53125 100.76171875 C-6.90620071 101.04840424 -6.28115143 101.33508972 -5.63716125 101.63046265 C1.54417236 104.93090164 8.60286338 108.43873073 15.625 112.0625 C16.56601563 112.51882812 17.50703125 112.97515625 18.4765625 113.4453125 C19.28867188 113.85523438 20.10078125 114.26515625 20.9375 114.6875 C21.59363281 115.00976562 22.24976563 115.33203125 22.92578125 115.6640625 C26.51732114 118.61985854 27.52563419 122.22460451 28.05859375 126.71875 C28.05988281 127.9871875 28.06117188 129.255625 28.0625 130.5625 C28.08183594 131.8309375 28.10117188 133.099375 28.12109375 134.40625 C27.53119903 138.75382055 26.48232113 140.74838039 23.625 144.0625 C21.35093469 145.59092329 19.30643795 146.80720718 16.875 148 C16.22394287 148.33354492 15.57288574 148.66708984 14.90209961 149.01074219 C8.76855067 152.10422244 2.48049517 154.84319761 -3.84375 157.51953125 C-6.61388455 158.72993296 -9.18810572 160.01596752 -11.8125 161.5 C-17.63633942 164.05431553 -21.91154886 163.97412654 -27.79174805 161.7980957 C-31.92562529 159.99904468 -35.95989763 157.99842661 -40 156 C-41.50451971 155.27176316 -43.00982308 154.54514333 -44.51586914 153.82006836 C-47.61489571 152.32440107 -50.70871558 150.81870435 -53.79833984 149.30371094 C-58.13465686 147.17742071 -62.48136278 145.07330206 -66.83203125 142.9765625 C-70.78515502 141.0705847 -74.73753053 139.16323848 -78.68359375 137.24267578 C-84.22390461 134.54647766 -89.76817847 131.86348269 -95.35546875 129.265625 C-96.68010132 128.64868774 -96.68010132 128.64868774 -98.03149414 128.01928711 C-99.60468329 127.29002813 -101.18044737 126.56628055 -102.75952148 125.84985352 C-111.91076594 121.60760502 -111.91076594 121.60760502 -114.44921875 117.1953125 C-119.6983894 100.0101296 -119.46905337 81.56532945 -119.60516357 63.75500488 C-119.61829911 62.2203696 -119.63617826 60.68576697 -119.65899658 59.15124512 C-119.68915145 56.96260856 -119.6986797 54.77475999 -119.703125 52.5859375 C-119.7124707 51.30638184 -119.72181641 50.02682617 -119.73144531 48.70849609 C-119.24921348 43.77585901 -118.19280003 39.6649346 -114.38232422 36.3059082 C-113.6142041 35.89171631 -112.84608398 35.47752441 -112.0546875 35.05078125 C-111.16491211 34.56432129 -110.27513672 34.07786133 -109.35839844 33.57666016 C-108.37387695 33.0769873 -107.38935547 32.57731445 -106.375 32.0625 C-105.31571289 31.52286621 -104.25642578 30.98323242 -103.16503906 30.42724609 C-99.62686089 28.66525568 -96.06799852 26.95038931 -92.5 25.25 C-91.20997042 24.63084639 -89.92001358 24.01154121 -88.63012695 23.39208984 C-80.52320792 19.50980119 -72.36318799 15.75881214 -64.14575195 12.11621094 C-59.0928961 9.86721847 -54.12271426 7.49615193 -49.1875 5 C-48.5495752 4.67918457 -47.91165039 4.35836914 -47.25439453 4.02783203 C-44.55963507 2.67191377 -41.86607314 1.31426791 -39.18164062 -0.06201172 C-36.94190226 -1.20462673 -34.69118837 -2.32270032 -32.4375 -3.4375 C-31.76372314 -3.78820557 -31.08994629 -4.13891113 -30.39575195 -4.50024414 C-19.02425604 -10.04687199 -10.4912234 -5.18891477 0 0 Z " fill="#E50001" transform="translate(192.375,56.9375)"/>
</svg>
