<?xml version="1.0" encoding="UTF-8"?>
<svg version="1.1" xmlns="http://www.w3.org/2000/svg" width="1569" height="345">
<path d="M0 0 C1.4955858 0.72372423 2.99193978 1.44586293 4.48901367 2.16650391 C8.41719117 4.06242954 12.33495859 5.97894619 16.25079346 7.90020752 C20.1286888 9.79863064 24.0156769 11.6782116 27.90234375 13.55859375 C32.3924081 15.7316738 36.88093378 17.90762409 41.36132812 20.10058594 C47.65240748 23.17841809 53.94494771 26.23516727 60.31640625 29.14453125 C61.29375732 29.59393066 62.2711084 30.04333008 63.27807617 30.50634766 C65.01317679 31.29911854 66.75376854 32.08005424 68.5012207 32.84521484 C69.25105225 33.18891113 70.00088379 33.53260742 70.7734375 33.88671875 C71.40427246 34.16604248 72.03510742 34.44536621 72.68505859 34.7331543 C76.17484749 37.12453367 79.09157912 39.81358808 80.08435059 43.99913025 C80.26758561 46.21554804 80.29240272 48.37794931 80.25390625 50.6015625 C80.25631821 51.40483978 80.25873016 52.20811707 80.26121521 53.03573608 C80.26024004 54.72504642 80.24692521 56.41439002 80.22192383 58.10351562 C80.18750266 60.68729997 80.20130683 63.26768144 80.22070312 65.8515625 C80.21380697 67.49741036 80.20413667 69.14324943 80.19140625 70.7890625 C80.19636612 71.55892487 80.20132599 72.32878723 80.20643616 73.12197876 C80.12879307 76.65741779 79.91031758 78.68408663 77.75366211 81.54443359 C74.69504072 83.72570528 73.35189878 83.6836498 69.625 83.0625 C64.38542998 80.9650139 59.1308964 78.63540835 55.625 74.0625 C54.76080777 71.46992331 54.44919068 69.72212293 54.30859375 67.05078125 C54.24575195 65.91479492 54.24575195 65.91479492 54.18164062 64.75585938 C54.14232422 63.97017578 54.10300781 63.18449219 54.0625 62.375 C54.01931641 61.57771484 53.97613281 60.78042969 53.93164062 59.95898438 C53.82572632 57.99368553 53.72487449 56.02811504 53.625 54.0625 C52.83867187 53.82789063 52.05234375 53.59328125 51.2421875 53.3515625 C46.58176609 51.69072118 42.20244828 49.5861378 37.75 47.4375 C36.3424646 46.76328003 36.3424646 46.76328003 34.90649414 46.07543945 C30.20130341 43.8141077 25.51452184 41.52199977 20.85888672 39.16040039 C17.45922703 37.43746875 14.04326872 35.74814906 10.625 34.0625 C9.54105957 33.52560547 8.45711914 32.98871094 7.34033203 32.43554688 C4.24230673 30.90641346 1.13262968 29.40291161 -1.98361206 27.9112854 C-3.23268302 27.30947331 -4.47849414 26.70084228 -5.72073364 26.08505249 C-7.48179 25.21380929 -9.25641065 24.37015424 -11.03125 23.52734375 C-12.06056641 23.028396 -13.08988281 22.52944824 -14.15039062 22.01538086 C-21.33991566 19.89085661 -27.09573615 22.48213626 -33.44140625 25.7109375 C-34.18981277 26.07960937 -34.9382193 26.44828125 -35.70930481 26.828125 C-38.12420343 28.02050256 -40.53072571 29.22882081 -42.9375 30.4375 C-44.60111039 31.26247157 -46.2653398 32.08619596 -47.93017578 32.90869141 C-50.41878175 34.13859464 -52.90685439 35.36947544 -55.39263916 36.60507202 C-63.03629572 40.40435719 -70.73580479 44.07793188 -78.45922852 47.71240234 C-80.77451963 48.81005866 -83.07841404 49.92629431 -85.375 51.0625 C-86.07141602 51.40313477 -86.76783203 51.74376953 -87.48535156 52.09472656 C-90.98598604 53.76643037 -90.98598604 53.76643037 -93.05297852 56.85083008 C-94.41493033 66.20482669 -93.19577304 76.12057801 -92.5625 85.5 C-92.49224609 86.73943359 -92.42199219 87.97886719 -92.34960938 89.25585938 C-92.22875977 91.04540039 -92.22875977 91.04540039 -92.10546875 92.87109375 C-92.03739014 93.94157959 -91.96931152 95.01206543 -91.89916992 96.11499023 C-91.29977252 99.48551879 -90.48646417 101.36841545 -88.375 104.0625 C-85.79722804 105.8022318 -85.79722804 105.8022318 -82.72265625 107.15625 C-81.56660889 107.70555176 -80.41056152 108.25485352 -79.21948242 108.82080078 C-77.95896719 109.40168319 -76.6983027 109.98224181 -75.4375 110.5625 C-74.14174865 111.17177102 -72.84659004 111.7823041 -71.55200195 112.39404297 C-68.17863048 113.98333243 -64.79711329 115.55437624 -61.41247559 117.11950684 C-58.75274626 118.35049414 -56.0963058 119.58848736 -53.43977356 120.82635498 C-48.05263112 123.33652262 -42.65980438 125.83373776 -37.26171875 128.3203125 C-33.73533993 129.94580947 -30.25141047 131.6182319 -26.80078125 133.3984375 C-22.84470525 135.32008901 -20.71835999 135.68298 -16.375 135.0625 C-10.98241726 133.13496536 -10.98241726 133.13496536 -7.375 129.0625 C-8.20257813 128.80726563 -9.03015625 128.55203125 -9.8828125 128.2890625 C-13.8113754 126.90923168 -17.4971598 125.23103821 -21.25 123.4375 C-21.9917749 123.08558594 -22.7335498 122.73367187 -23.49780273 122.37109375 C-29.82826016 119.35384191 -36.11010137 116.24426325 -42.36328125 113.0703125 C-45.15122548 111.66014343 -47.96079002 110.31118246 -50.79296875 108.9921875 C-51.51798584 108.64800781 -52.24300293 108.30382812 -52.98999023 107.94921875 C-54.36998893 107.29527769 -55.75595718 106.65372532 -57.14868164 106.02734375 C-61.74557745 103.82319873 -64.17318777 101.66827596 -66.375 97.0625 C-66.88090866 94.18227805 -66.89148026 91.41717406 -66.8125 88.5 C-66.81958984 87.75814453 -66.82667969 87.01628906 -66.83398438 86.25195312 C-66.78025112 81.61022682 -66.19197198 78.92308231 -63.375 75.0625 C-61.16113281 73.50439453 -61.16113281 73.50439453 -58.578125 72.1953125 C-57.62615234 71.70522705 -56.67417969 71.2151416 -55.69335938 70.71020508 C-54.68080078 70.2077124 -53.66824219 69.70521973 -52.625 69.1875 C-51.59181641 68.66373779 -50.55863281 68.13997559 -49.49414062 67.6003418 C-46.46224569 66.07140724 -43.42048815 64.56413775 -40.375 63.0625 C-39.57126953 62.6607959 -38.76753906 62.2590918 -37.93945312 61.84521484 C-22.20591244 54.00318277 -22.20591244 54.00318277 -15.69360352 55.80395508 C-6.61445172 59.12818044 2.02368087 63.53022443 10.6763916 67.81826782 C14.97235629 69.94688063 19.27694611 72.05787658 23.58203125 74.16796875 C24.43787811 74.58773483 25.29372498 75.00750092 26.17550659 75.43998718 C34.94528499 79.72949916 43.79331036 83.83985385 52.68188477 87.87695312 C71.83769607 96.63286593 71.83769607 96.63286593 76.625 102.0625 C78.6300476 107.85386518 76.83372305 113.80464923 75.625 119.625 C75.39570801 120.73399658 75.16641602 121.84299316 74.93017578 122.9855957 C67.13921018 159.16828945 48.76016345 193.40633961 19.125 216.375 C18.52969482 216.83865967 17.93438965 217.30231934 17.32104492 217.7800293 C10.65644781 222.90256363 3.72423882 227.56826446 -3.375 232.0625 C-4.36628906 232.70832031 -5.35757813 233.35414063 -6.37890625 234.01953125 C-12.66995214 237.84069284 -18.04243589 239.7976121 -25.375 238.0625 C-30.41139747 235.92265132 -34.86191508 233.11657536 -39.375 230.0625 C-40.45007813 229.33909424 -40.45007813 229.33909424 -41.546875 228.60107422 C-51.93755791 221.52690023 -61.40263682 213.85490174 -70.375 205.0625 C-71.15101562 204.32515625 -71.92703125 203.5878125 -72.7265625 202.828125 C-74.32407371 201.28789507 -75.85962077 199.68360336 -77.375 198.0625 C-77.375 197.4025 -77.375 196.7425 -77.375 196.0625 C-78.035 196.0625 -78.695 196.0625 -79.375 196.0625 C-80.65258789 194.6640625 -80.65258789 194.6640625 -82.09765625 192.6875 C-82.89913086 191.59248169 -82.89913086 191.59248169 -83.71679688 190.4753418 C-84.56854492 189.28098511 -84.56854492 189.28098511 -85.4375 188.0625 C-86.01951172 187.24885986 -86.60152344 186.43521973 -87.20117188 185.59692383 C-107.44000962 156.86480315 -107.44000962 156.86480315 -106.375 144.0625 C-105.3125 142.1875 -105.3125 142.1875 -103.375 141.0625 C-94.01329987 141.68348887 -82.83786456 146.76086507 -76.375 153.6875 C-73.33774062 157.67731888 -71.08871818 162.15545015 -68.71166992 166.55688477 C-64.71087449 173.68964974 -59.12599652 179.31957789 -53.375 185.0625 C-52.52292969 185.92230469 -51.67085938 186.78210938 -50.79296875 187.66796875 C-42.9288019 195.45590781 -34.68463703 202.09575432 -25.375 208.0625 C-24.38113281 208.71412109 -24.38113281 208.71412109 -23.3671875 209.37890625 C-20.31102217 210.42759043 -18.47567704 209.95323995 -15.375 209.0625 C-12.70388061 207.66172815 -10.27003965 205.99402181 -7.8125 204.25 C-7.11431152 203.76080078 -6.41612305 203.27160156 -5.69677734 202.76757812 C21.2339353 183.47795733 40.67646427 155.65211122 47.625 123.0625 C47.68956879 121.64715222 47.71111039 120.22912311 47.6875 118.8125 C47.6565625 116.95625 47.6565625 116.95625 47.625 115.0625 C29.16184762 105.13074592 10.35296845 96.02123191 -8.85546875 87.62109375 C-10.81314898 86.75415212 -12.76164357 85.8609166 -14.66015625 84.87109375 C-17.66404817 83.45468002 -20.10824518 83.73582452 -23.375 84.0625 C-26.16968501 85.18820499 -28.7726198 86.54838788 -31.375 88.0625 C-28.83453409 91.02300419 -26.0470779 92.32046213 -22.51953125 93.91796875 C-21.34688721 94.45421875 -20.17424316 94.99046875 -18.96606445 95.54296875 C-18.34849274 95.82188965 -17.73092102 96.10081055 -17.09463501 96.38818359 C-13.90026838 97.83168789 -10.71627701 99.2977514 -7.53125 100.76171875 C-6.90620071 101.04840424 -6.28115143 101.33508972 -5.63716125 101.63046265 C1.54417236 104.93090164 8.60286338 108.43873073 15.625 112.0625 C16.56601563 112.51882812 17.50703125 112.97515625 18.4765625 113.4453125 C19.28867188 113.85523438 20.10078125 114.26515625 20.9375 114.6875 C21.59363281 115.00976562 22.24976563 115.33203125 22.92578125 115.6640625 C26.51732114 118.61985854 27.52563419 122.22460451 28.05859375 126.71875 C28.05988281 127.9871875 28.06117188 129.255625 28.0625 130.5625 C28.08183594 131.8309375 28.10117188 133.099375 28.12109375 134.40625 C27.53119903 138.75382055 26.48232113 140.74838039 23.625 144.0625 C21.35093469 145.59092329 19.30643795 146.80720718 16.875 148 C16.22394287 148.33354492 15.57288574 148.66708984 14.90209961 149.01074219 C8.76855067 152.10422244 2.48049517 154.84319761 -3.84375 157.51953125 C-6.61388455 158.72993296 -9.18810572 160.01596752 -11.8125 161.5 C-17.63633942 164.05431553 -21.91154886 163.97412654 -27.79174805 161.7980957 C-31.92562529 159.99904468 -35.95989763 157.99842661 -40 156 C-41.50451971 155.27176316 -43.00982308 154.54514333 -44.51586914 153.82006836 C-47.61489571 152.32440107 -50.70871558 150.81870435 -53.79833984 149.30371094 C-58.13465686 147.17742071 -62.48136278 145.07330206 -66.83203125 142.9765625 C-70.78515502 141.0705847 -74.73753053 139.16323848 -78.68359375 137.24267578 C-84.22390461 134.54647766 -89.76817847 131.86348269 -95.35546875 129.265625 C-96.68010132 128.64868774 -96.68010132 128.64868774 -98.03149414 128.01928711 C-99.60468329 127.29002813 -101.18044737 126.56628055 -102.75952148 125.84985352 C-111.91076594 121.60760502 -111.91076594 121.60760502 -114.44921875 117.1953125 C-119.6983894 100.0101296 -119.46905337 81.56532945 -119.60516357 63.75500488 C-119.61829911 62.2203696 -119.63617826 60.68576697 -119.65899658 59.15124512 C-119.68915145 56.96260856 -119.6986797 54.77475999 -119.703125 52.5859375 C-119.7124707 51.30638184 -119.72181641 50.02682617 -119.73144531 48.70849609 C-119.24921348 43.77585901 -118.19280003 39.6649346 -114.38232422 36.3059082 C-113.6142041 35.89171631 -112.84608398 35.47752441 -112.0546875 35.05078125 C-111.16491211 34.56432129 -110.27513672 34.07786133 -109.35839844 33.57666016 C-108.37387695 33.0769873 -107.38935547 32.57731445 -106.375 32.0625 C-105.31571289 31.52286621 -104.25642578 30.98323242 -103.16503906 30.42724609 C-99.62686089 28.66525568 -96.06799852 26.95038931 -92.5 25.25 C-91.20997042 24.63084639 -89.92001358 24.01154121 -88.63012695 23.39208984 C-80.52320792 19.50980119 -72.36318799 15.75881214 -64.14575195 12.11621094 C-59.0928961 9.86721847 -54.12271426 7.49615193 -49.1875 5 C-48.5495752 4.67918457 -47.91165039 4.35836914 -47.25439453 4.02783203 C-44.55963507 2.67191377 -41.86607314 1.31426791 -39.18164062 -0.06201172 C-36.94190226 -1.20462673 -34.69118837 -2.32270032 -32.4375 -3.4375 C-31.76372314 -3.78820557 -31.08994629 -4.13891113 -30.39575195 -4.50024414 C-19.02425604 -10.04687199 -10.4912234 -5.18891477 0 0 Z " fill="#E50001" transform="translate(143.375,56.9375)"/>
<path d="M0 0 C1.71796052 2.11275216 2.98144604 3.97373704 4.3125 6.3125 C4.72363037 7.00053711 5.13476074 7.68857422 5.55834961 8.39746094 C7.05818346 10.92072662 8.52873318 13.45997437 10 16 C11.27495664 18.17641723 12.55107589 20.35215366 13.828125 22.52734375 C15.97677308 26.18923646 18.12308496 29.85245085 20.26245117 33.51977539 C26.31636932 43.88961101 32.52225209 54.16138905 38.7729187 64.41345215 C45.57626049 75.57242098 52.29003563 86.78466815 59 98 C61.65287949 95.59483512 63.32048995 93.00875834 65.125 89.92578125 C65.73956055 88.88172119 66.35412109 87.83766113 66.98730469 86.76196289 C67.65149414 85.62364014 68.31568359 84.48531738 69 83.3125 C69.70423355 82.11354588 70.40899774 80.91490331 71.11425781 79.71655273 C72.62143487 77.15509511 74.12667403 74.59251235 75.63085938 72.02929688 C79.64650328 65.19279427 83.70006353 58.3787207 87.75 51.5625 C88.56372152 50.19246468 89.37744222 48.82242887 90.19116211 47.45239258 C102.21992807 27.20378899 102.21992807 27.20378899 107.68115234 18.19628906 C109.05374663 15.91049525 110.39669217 13.60879375 111.73828125 11.3046875 C112.61662225 9.82778869 113.49550239 8.35121034 114.375 6.875 C114.9464978 5.86953125 114.9464978 5.86953125 115.52954102 4.84375 C117.43262269 1.69450902 118.76884373 0.11195272 122.11328125 -1.5078125 C125 -2 125 -2 127.8125 -0.75 C130 1 130 1 131 3 C131.09395006 4.9765375 131.12190624 6.95632071 131.12025452 8.93508911 C131.12231651 10.83239777 131.12231651 10.83239777 131.12442017 12.76803589 C131.12088078 14.1775515 131.11724597 15.58706688 131.11352539 16.99658203 C131.11324344 18.47469074 131.1134014 19.95279958 131.1139679 21.4309082 C131.11425558 25.4513349 131.10836351 29.47173195 131.10139394 33.49215174 C131.0951556 37.69088244 131.09455622 41.88961377 131.09336853 46.08834839 C131.09025664 54.04271462 131.08204515 61.99706715 131.07201904 69.95142734 C131.06085351 79.00571312 131.05534634 88.05999953 131.05032361 97.11429048 C131.03986243 115.7428683 131.022065 134.37143255 131 153 C126.38 153 121.76 153 117 153 C116.67 113.73 116.34 74.46 116 34 C112.04 40.6 108.08 47.2 104 54 C101.92654067 57.38227189 99.84970498 60.75941057 97.75 64.125 C96.6598446 65.88001478 95.57001686 67.63523313 94.48046875 69.390625 C93.9189209 70.29490234 93.35737305 71.19917969 92.77880859 72.13085938 C82.09432704 89.3644618 71.52233871 106.6670377 61 124 C56.89553892 122.49158086 55.53144838 120.11043655 53.34765625 116.41796875 C53.01139221 115.85650146 52.67512817 115.29503418 52.32867432 114.71655273 C51.23061598 112.87891629 50.14678884 111.03328819 49.0625 109.1875 C48.29894064 107.90530812 47.53419942 106.62381934 46.76831055 105.34301758 C45.60902445 103.40390562 44.45052182 101.4643721 43.29585266 99.52250671 C40.03349648 94.03635577 36.69008418 88.60346363 33.3125 83.1875 C28.21954233 74.99545051 23.18936128 66.76668426 18.19458008 58.5144043 C13.20743366 50.29108687 8.09916299 42.15866078 3 34 C2.67 73.27 2.34 112.54 2 153 C-2.62 153 -7.24 153 -12 153 C-12.06941503 133.51153256 -12.12296749 114.02309997 -12.15543652 94.53453445 C-12.17091244 85.48587081 -12.19201579 76.43728534 -12.22631836 67.38867188 C-12.25619854 59.50287981 -12.27556973 51.61714435 -12.28226548 43.73129725 C-12.2861801 39.55489645 -12.29539495 35.37865761 -12.31719017 31.20230865 C-12.33753356 27.27236111 -12.34383819 23.34264244 -12.33932304 19.41264725 C-12.34014921 17.96946342 -12.34612778 16.52627203 -12.35761642 15.0831337 C-12.37252507 13.11401134 -12.36716991 11.14476652 -12.36076355 9.17559814 C-12.36352893 8.07313374 -12.36629431 6.97066933 -12.36914349 5.83479691 C-11.95189056 2.63054882 -11.26121066 1.276928 -9 -1 C-5.09634568 -2.30121811 -3.6931604 -1.74594275 0 0 Z " fill="#FFFFFF" transform="translate(1415,92)"/>
<path d="M0 0 C1.71796052 2.11275216 2.98144604 3.97373704 4.3125 6.3125 C4.72363037 7.00053711 5.13476074 7.68857422 5.55834961 8.39746094 C7.05818346 10.92072662 8.52873318 13.45997437 10 16 C11.27495664 18.17641723 12.55107589 20.35215366 13.828125 22.52734375 C15.97677308 26.18923646 18.12308496 29.85245085 20.26245117 33.51977539 C26.31636932 43.88961101 32.52225209 54.16138905 38.7729187 64.41345215 C45.57626049 75.57242098 52.29003563 86.78466815 59 98 C61.65287949 95.59483512 63.32048995 93.00875834 65.125 89.92578125 C65.73956055 88.88172119 66.35412109 87.83766113 66.98730469 86.76196289 C67.65149414 85.62364014 68.31568359 84.48531738 69 83.3125 C69.70423355 82.11354588 70.40899774 80.91490331 71.11425781 79.71655273 C72.62143487 77.15509511 74.12667403 74.59251235 75.63085938 72.02929688 C79.64650328 65.19279427 83.70006353 58.3787207 87.75 51.5625 C88.56372152 50.19246468 89.37744222 48.82242887 90.19116211 47.45239258 C102.21992807 27.20378899 102.21992807 27.20378899 107.68115234 18.19628906 C109.05374663 15.91049525 110.39669217 13.60879375 111.73828125 11.3046875 C112.61662225 9.82778869 113.49550239 8.35121034 114.375 6.875 C114.9464978 5.86953125 114.9464978 5.86953125 115.52954102 4.84375 C117.43262269 1.69450902 118.76884373 0.11195272 122.11328125 -1.5078125 C125 -2 125 -2 127.8125 -0.75 C130 1 130 1 131 3 C131.09395006 4.9765375 131.12190624 6.95632071 131.12025452 8.93508911 C131.12231651 10.83239777 131.12231651 10.83239777 131.12442017 12.76803589 C131.12088078 14.1775515 131.11724597 15.58706688 131.11352539 16.99658203 C131.11324344 18.47469074 131.1134014 19.95279958 131.1139679 21.4309082 C131.11425558 25.4513349 131.10836351 29.47173195 131.10139394 33.49215174 C131.0951556 37.69088244 131.09455622 41.88961377 131.09336853 46.08834839 C131.09025664 54.04271462 131.08204515 61.99706715 131.07201904 69.95142734 C131.06085351 79.00571312 131.05534634 88.05999953 131.05032361 97.11429048 C131.03986243 115.7428683 131.022065 134.37143255 131 153 C126.38 153 121.76 153 117 153 C116.67 113.73 116.34 74.46 116 34 C112.04 40.6 108.08 47.2 104 54 C101.92654067 57.38227189 99.84970498 60.75941057 97.75 64.125 C96.6598446 65.88001478 95.57001686 67.63523313 94.48046875 69.390625 C93.9189209 70.29490234 93.35737305 71.19917969 92.77880859 72.13085938 C82.09432704 89.3644618 71.52233871 106.6670377 61 124 C56.89553892 122.49158086 55.53144838 120.11043655 53.34765625 116.41796875 C53.01139221 115.85650146 52.67512817 115.29503418 52.32867432 114.71655273 C51.23061598 112.87891629 50.14678884 111.03328819 49.0625 109.1875 C48.29894064 107.90530812 47.53419942 106.62381934 46.76831055 105.34301758 C45.60902445 103.40390562 44.45052182 101.4643721 43.29585266 99.52250671 C40.03349648 94.03635577 36.69008418 88.60346363 33.3125 83.1875 C28.21954233 74.99545051 23.18936128 66.76668426 18.19458008 58.5144043 C13.20743366 50.29108687 8.09916299 42.15866078 3 34 C2.67 73.27 2.34 112.54 2 153 C-2.62 153 -7.24 153 -12 153 C-12.06941503 133.51153256 -12.12296749 114.02309997 -12.15543652 94.53453445 C-12.17091244 85.48587081 -12.19201579 76.43728534 -12.22631836 67.38867188 C-12.25619854 59.50287981 -12.27556973 51.61714435 -12.28226548 43.73129725 C-12.2861801 39.55489645 -12.29539495 35.37865761 -12.31719017 31.20230865 C-12.33753356 27.27236111 -12.34383819 23.34264244 -12.33932304 19.41264725 C-12.34014921 17.96946342 -12.34612778 16.52627203 -12.35761642 15.0831337 C-12.37252507 13.11401134 -12.36716991 11.14476652 -12.36076355 9.17559814 C-12.36352893 8.07313374 -12.36629431 6.97066933 -12.36914349 5.83479691 C-11.95189056 2.63054882 -11.26121066 1.276928 -9 -1 C-5.09634568 -2.30121811 -3.6931604 -1.74594275 0 0 Z " fill="#FFFFFF" transform="translate(765,92)"/>
<path d="M0 0 C1.15583084 -0.00637985 2.31166168 -0.0127597 3.5025177 -0.01933289 C4.75554184 -0.02044571 6.00856598 -0.02155853 7.29956055 -0.02270508 C8.59387497 -0.02603348 9.88818939 -0.02936188 11.22172546 -0.03279114 C13.96976553 -0.03878411 16.71777417 -0.0406313 19.46582031 -0.04003906 C22.94739628 -0.03993843 26.42876373 -0.05348597 29.91029072 -0.07081127 C33.26921592 -0.08478554 36.62810681 -0.08402551 39.98706055 -0.08520508 C41.21781815 -0.09239059 42.44857574 -0.09957611 43.71662903 -0.10697937 C61.31701582 -0.06149456 76.80812439 2.24701096 90.3737793 14.14526367 C100.32397495 24.21411583 104.65970315 36.14170445 104.69067383 50.13012695 C104.48461497 60.66965613 101.01100199 69.98116815 94.3737793 78.14526367 C93.84526367 78.82073242 93.31674805 79.49620117 92.7722168 80.19213867 C86.72117876 87.06952992 78.55588396 90.41168193 70.3737793 94.14526367 C70.7548584 94.7769043 71.1359375 95.40854492 71.52856445 96.05932617 C80.46320968 110.88010607 89.31121651 125.74574945 97.97290039 140.72827148 C98.85939499 142.25777593 99.75217424 143.7836698 100.65356445 145.30444336 C103.3737793 149.92988095 103.3737793 149.92988095 103.3737793 152.14526367 C97.91575457 153.67634593 92.67844036 154.64762012 87.3737793 152.14526367 C81.84798679 146.48386014 78.65845437 138.72234038 75.18725586 131.71020508 C72.10372572 125.64858591 68.62500172 119.8226704 65.1862793 113.95776367 C63.94112299 111.79856772 62.69752149 109.63847407 61.45581055 107.47729492 C60.43225509 105.69776683 59.40516827 103.92026304 58.3737793 102.14526367 C57.95530731 101.28078613 57.53683533 100.41630859 57.10568237 99.52563477 C55.60654882 96.94169677 55.60654882 96.94169677 53.00093079 96.50602722 C52.06605331 96.49936539 51.13117584 96.49270355 50.16796875 96.48583984 C49.09228638 96.46614136 48.016604 96.44644287 46.9083252 96.42614746 C45.77930786 96.4301355 44.65029053 96.43412354 43.48706055 96.43823242 C42.44819702 96.42360962 41.4093335 96.40898682 40.33898926 96.3939209 C36.45498836 96.3465188 32.57055788 96.34224449 28.6862793 96.33276367 C20.0031543 96.27088867 11.3200293 96.20901367 2.3737793 96.14526367 C2.3737793 114.62526367 2.3737793 133.10526367 2.3737793 152.14526367 C-2.2462207 152.14526367 -6.8662207 152.14526367 -11.6262207 152.14526367 C-11.69563744 133.04794809 -11.74918907 113.95066808 -11.78165722 94.85325241 C-11.79713277 85.98619037 -11.81823539 77.11920811 -11.85253906 68.25219727 C-11.8824204 60.52461833 -11.9017907 52.79709716 -11.90848619 45.06946206 C-11.9124006 40.97689682 -11.92161421 36.88449687 -11.94341087 32.79198456 C-11.96375611 28.94083026 -11.97005853 25.08990952 -11.96554375 21.23870659 C-11.96636983 19.82454853 -11.97234732 18.41038275 -11.98383713 16.99627113 C-11.99874861 15.06656149 -11.99338995 13.13672684 -11.98698425 11.20697021 C-11.98974963 10.12662884 -11.99251501 9.04628746 -11.99536419 7.93320847 C-11.57503627 4.75869483 -10.86276973 3.40692061 -8.6262207 1.14526367 C-5.4931886 0.10091964 -3.287994 0.01232361 0 0 Z M2.3737793 13.14526367 C2.3737793 36.24526367 2.3737793 59.34526367 2.3737793 83.14526367 C15.8934668 83.23807617 15.8934668 83.23807617 29.6862793 83.33276367 C32.509729 83.36007568 35.33317871 83.3873877 38.2421875 83.41552734 C40.51130751 83.42429941 42.7804323 83.43194164 45.04956055 83.43823242 C46.20242554 83.45358032 47.35529053 83.46892822 48.54309082 83.48474121 C59.94684014 83.48838187 70.26896854 81.32057811 79.3737793 74.14526367 C86.98604628 66.53299669 90.3981727 59.39846161 90.8112793 48.70776367 C90.58392976 39.44056348 87.18022179 31.02680683 80.6237793 24.36791992 C69.64269355 14.22328406 58.13677271 12.81638818 43.5847168 12.94995117 C42.00750854 12.95297241 42.00750854 12.95297241 40.3984375 12.95605469 C36.51517296 12.96642501 32.63197119 12.99434667 28.7487793 13.02026367 C20.0450293 13.06151367 11.3412793 13.10276367 2.3737793 13.14526367 Z " fill="#FFFFFF" transform="translate(605.626220703125,92.854736328125)"/>
<path d="M0 0 C0.90443848 -0.00137466 1.80887695 -0.00274933 2.74072266 -0.00416565 C3.73046585 -0.00057037 4.72020905 0.0030249 5.73994446 0.00672913 C6.78401459 0.0065831 7.82808472 0.00643707 8.90379333 0.00628662 C12.36132369 0.00698434 15.81880044 0.01477021 19.27632141 0.02259827 C21.67099986 0.02446295 24.0656787 0.02588661 26.46035767 0.02688599 C32.76832632 0.03070723 39.076272 0.0405342 45.38423157 0.05158997 C51.81896148 0.0618125 58.2536951 0.06638542 64.68843079 0.07142639 C77.31799818 0.08215679 89.94754851 0.09922854 102.57710266 0.12025452 C102.57710266 4.41025452 102.57710266 8.70025452 102.57710266 13.12025452 C69.90710266 13.12025452 37.23710266 13.12025452 3.57710266 13.12025452 C3.57710266 31.27025452 3.57710266 49.42025452 3.57710266 68.12025452 C34.59710266 68.12025452 65.61710266 68.12025452 97.57710266 68.12025452 C97.57710266 72.08025452 97.57710266 76.04025452 97.57710266 80.12025452 C66.55710266 80.12025452 35.53710266 80.12025452 3.57710266 80.12025452 C3.57710266 99.59025452 3.57710266 119.06025452 3.57710266 139.12025452 C36.24710266 139.12025452 68.91710266 139.12025452 102.57710266 139.12025452 C102.57710266 143.41025452 102.57710266 147.70025452 102.57710266 152.12025452 C88.71242108 152.18973258 74.84778084 152.24305477 60.9829607 152.27569103 C54.54512195 152.29135395 48.10740221 152.31260397 41.66963196 152.34657288 C35.45806392 152.37914351 29.24661044 152.39710281 23.03496361 152.40488625 C20.66386295 152.41043384 18.29276864 152.42126678 15.92171669 152.43744469 C12.60333784 152.45918799 9.28543374 152.46222268 5.96699524 152.46083069 C4.9844426 152.47161652 4.00188995 152.48240234 2.98956299 152.49351501 C-1.93455823 152.47113041 -5.47420749 152.43030845 -9.42289734 149.12025452 C-10.74652785 146.47299349 -10.55485744 144.48152978 -10.56333923 141.51579285 C-10.56904938 140.32401428 -10.57475952 139.13223572 -10.5806427 137.90434265 C-10.58176056 136.59001251 -10.58287842 135.27568237 -10.58403015 133.92152405 C-10.5886575 132.52872079 -10.59368205 131.13591879 -10.59907532 129.74311829 C-10.61220904 125.95383328 -10.61864612 122.164566 -10.62308598 118.37526178 C-10.62601503 116.00897513 -10.6301195 113.64269335 -10.63459015 111.27640915 C-10.6482674 103.87605534 -10.65793304 96.47571264 -10.66179204 89.07534707 C-10.66627406 80.5266809 -10.68382762 71.97817453 -10.71279263 63.42955697 C-10.73439327 56.82568378 -10.74449545 50.22185561 -10.74583316 43.61794746 C-10.74688232 39.67185763 -10.75281356 35.72591797 -10.77065277 31.77986526 C-10.78710569 28.06819797 -10.78930266 24.35679417 -10.78051376 20.64510345 C-10.77937363 18.63245737 -10.7931123 16.61982014 -10.80726624 14.60722351 C-10.80169708 13.4098053 -10.79612793 12.21238708 -10.79039001 10.97868347 C-10.79185658 9.93781145 -10.79332314 8.89693943 -10.79483414 7.82452583 C-10.3657897 4.70503731 -9.61429008 3.35353436 -7.42289734 1.12025452 C-4.60634006 0.18140209 -2.91229341 -0.00341418 0 0 Z " fill="#FFFFFF" transform="translate(1251.4228973388672,92.87974548339844)"/>
<path d="M0 0 C0.90443848 -0.00137466 1.80887695 -0.00274933 2.74072266 -0.00416565 C3.73046585 -0.00057037 4.72020905 0.0030249 5.73994446 0.00672913 C6.78401459 0.0065831 7.82808472 0.00643707 8.90379333 0.00628662 C12.36132369 0.00698434 15.81880044 0.01477021 19.27632141 0.02259827 C21.67099986 0.02446295 24.0656787 0.02588661 26.46035767 0.02688599 C32.76832632 0.03070723 39.076272 0.0405342 45.38423157 0.05158997 C51.81896148 0.0618125 58.2536951 0.06638542 64.68843079 0.07142639 C77.31799818 0.08215679 89.94754851 0.09922854 102.57710266 0.12025452 C102.57710266 4.41025452 102.57710266 8.70025452 102.57710266 13.12025452 C69.90710266 13.12025452 37.23710266 13.12025452 3.57710266 13.12025452 C3.57710266 31.27025452 3.57710266 49.42025452 3.57710266 68.12025452 C34.59710266 68.12025452 65.61710266 68.12025452 97.57710266 68.12025452 C97.57710266 72.08025452 97.57710266 76.04025452 97.57710266 80.12025452 C66.55710266 80.12025452 35.53710266 80.12025452 3.57710266 80.12025452 C3.57710266 99.59025452 3.57710266 119.06025452 3.57710266 139.12025452 C36.24710266 139.12025452 68.91710266 139.12025452 102.57710266 139.12025452 C102.57710266 143.41025452 102.57710266 147.70025452 102.57710266 152.12025452 C88.71242108 152.18973258 74.84778084 152.24305477 60.9829607 152.27569103 C54.54512195 152.29135395 48.10740221 152.31260397 41.66963196 152.34657288 C35.45806392 152.37914351 29.24661044 152.39710281 23.03496361 152.40488625 C20.66386295 152.41043384 18.29276864 152.42126678 15.92171669 152.43744469 C12.60333784 152.45918799 9.28543374 152.46222268 5.96699524 152.46083069 C4.9844426 152.47161652 4.00188995 152.48240234 2.98956299 152.49351501 C-1.93455823 152.47113041 -5.47420749 152.43030845 -9.42289734 149.12025452 C-10.74652785 146.47299349 -10.55485744 144.48152978 -10.56333923 141.51579285 C-10.56904938 140.32401428 -10.57475952 139.13223572 -10.5806427 137.90434265 C-10.58176056 136.59001251 -10.58287842 135.27568237 -10.58403015 133.92152405 C-10.5886575 132.52872079 -10.59368205 131.13591879 -10.59907532 129.74311829 C-10.61220904 125.95383328 -10.61864612 122.164566 -10.62308598 118.37526178 C-10.62601503 116.00897513 -10.6301195 113.64269335 -10.63459015 111.27640915 C-10.6482674 103.87605534 -10.65793304 96.47571264 -10.66179204 89.07534707 C-10.66627406 80.5266809 -10.68382762 71.97817453 -10.71279263 63.42955697 C-10.73439327 56.82568378 -10.74449545 50.22185561 -10.74583316 43.61794746 C-10.74688232 39.67185763 -10.75281356 35.72591797 -10.77065277 31.77986526 C-10.78710569 28.06819797 -10.78930266 24.35679417 -10.78051376 20.64510345 C-10.77937363 18.63245737 -10.7931123 16.61982014 -10.80726624 14.60722351 C-10.80169708 13.4098053 -10.79612793 12.21238708 -10.79039001 10.97868347 C-10.79185658 9.93781145 -10.79332314 8.89693943 -10.79483414 7.82452583 C-10.3657897 4.70503731 -9.61429008 3.35353436 -7.42289734 1.12025452 C-4.60634006 0.18140209 -2.91229341 -0.00341418 0 0 Z " fill="#FFFFFF" transform="translate(442.4228973388672,92.87974548339844)"/>
<path d="M0 0 C-1.31061591 4.23429756 -2.94356259 8.07407404 -5 12 C-9.23999558 11.43091505 -12.7118953 10.3909135 -16.625 8.6875 C-37.89844652 0.39037347 -62.35801045 -1.61433376 -83.7734375 7.1328125 C-90.31483957 10.41437965 -94.97770222 15.12805194 -97.875 21.875 C-99.77652957 27.7731576 -99.96035846 33.41284085 -97.5625 39.1875 C-93.13149521 46.92637295 -85.07316513 49.57050447 -76.95776367 51.99169922 C-68.30868947 54.31350005 -59.34109313 55.45366209 -50.50732422 56.85180664 C-32.19498092 59.77457334 -11.18419223 63.48799241 1.1875 78.6875 C6.96653897 89.2491919 7.65230915 101.14118893 4.875 112.8125 C1.12049528 124.56497291 -5.75731448 132.35034974 -16.5 138.1875 C-44.84252215 151.4542125 -79.19512382 146.53769638 -107.75 136.4375 C-112.66960212 134.61472434 -112.66960212 134.61472434 -113.98046875 132.17578125 C-114.00736137 129.17994354 -112.97746487 127.37286172 -111.5625 124.75 C-111.08941406 123.85796875 -110.61632812 122.9659375 -110.12890625 122.046875 C-109.57009766 121.03367188 -109.57009766 121.03367188 -109 120 C-105.46665455 121.1604615 -101.95493826 122.36951975 -98.453125 123.62109375 C-74.80233271 131.95622496 -48.33370658 137.16482049 -24.5 126.3125 C-17.68158083 122.58668818 -12.90739389 117.9954843 -10.0625 110.6875 C-8.07563814 103.52986102 -7.87192223 95.65686625 -10.90625 88.7734375 C-16.43483638 79.80922958 -27.88382329 75.91599742 -37.55932617 73.52124023 C-46.72650962 71.45022444 -56.08031779 70.18320224 -65.37744141 68.83789062 C-82.48000828 66.3354161 -96.93237727 63.21481904 -109 50 C-114.64710307 41.67089547 -115.08194516 31.83092497 -113.5390625 22.08984375 C-111.11661441 11.95831087 -105.61845425 3.89163184 -97 -2 C-67.77143503 -18.47498689 -29.2850569 -14.119581 0 0 Z " fill="#FFFFFF" transform="translate(381,102)"/>
<path d="M0 0 C3.3025517 3.52228015 4.8319265 7.98693965 6.6328125 12.390625 C6.98170532 13.23025284 7.33059814 14.06988068 7.69006348 14.93495178 C8.44452414 16.75213967 9.19644446 18.5703839 9.94610596 20.38955688 C11.96324537 25.28390052 13.998948 30.17053174 16.03125 35.05859375 C16.44694244 36.060009 16.86263489 37.06142426 17.29092407 38.09318542 C21.34666246 47.85676828 25.47816894 57.58733768 29.625 67.3125 C31.02664747 70.60260683 32.42760313 73.89300763 33.828125 77.18359375 C34.17220398 77.99199707 34.51628296 78.80040039 34.87078857 79.63330078 C39.40000397 90.28190801 43.88546043 100.94897367 48.36767578 111.61743164 C51.37768426 118.78045344 54.39467671 125.94010902 57.4453125 133.0859375 C57.97089624 134.31916024 58.49645062 135.5523955 59.02197266 136.78564453 C59.97954675 139.0301071 60.93997915 141.27335324 61.90380859 143.51513672 C62.31711426 144.48467285 62.73041992 145.45420898 63.15625 146.453125 C63.51525391 147.29004883 63.87425781 148.12697266 64.24414062 148.98925781 C65 151 65 151 65 153 C60.05 153 55.1 153 50 153 C45.29574545 144.02323893 41.50382466 134.75184471 37.6875 125.375 C34.3771875 117.269375 34.3771875 117.269375 31 109 C7.24 108.67 -16.52 108.34 -41 108 C-41.99 110.97 -42.98 113.94 -44 117 C-45.16462838 119.93367157 -46.34775355 122.84683704 -47.57421875 125.75390625 C-47.90291458 126.54022934 -48.23161041 127.32655243 -48.57026672 128.13670349 C-49.60631281 130.61325185 -50.64681935 133.08789611 -51.6875 135.5625 C-52.39678207 137.25573471 -53.10576909 138.94909303 -53.81445312 140.64257812 C-55.53956616 144.76315368 -57.26867816 148.88202954 -59 153 C-64.28 153 -69.56 153 -75 153 C-72.81276262 146.11497247 -70.20086207 139.52279653 -67.34375 132.890625 C-66.88920944 131.82726929 -66.43466888 130.76391357 -65.96635437 129.66833496 C-64.98947726 127.38398357 -64.01100992 125.10031169 -63.03109741 122.81726074 C-60.68211257 117.3444271 -58.34240681 111.86762859 -56.00200462 106.39112091 C-55.2048805 104.52621824 -54.40731853 102.66150328 -53.60969543 100.79681396 C-49.15277386 90.37444294 -44.738958 79.93423487 -40.34033203 69.4871521 C-36.90115384 61.32156201 -33.45127205 53.16048437 -30 45 C-29.3839389 43.5430069 -29.3839389 43.5430069 -28.75543213 42.05657959 C-26.24403864 36.11964973 -23.72590383 30.18564865 -21.1991272 24.25524902 C-20.40746848 22.394983 -19.61769562 20.53391316 -18.82992554 18.67199707 C-17.74597151 16.11111739 -16.65514905 13.55327321 -15.5625 10.99609375 C-15.24465042 10.24108078 -14.92680084 9.48606781 -14.59931946 8.70817566 C-11.63572226 1.81187637 -11.63572226 1.81187637 -9 -1 C-5.15941827 -2.28019391 -3.6601592 -1.60131965 0 0 Z M-6 24 C-6.3810791 24.91773193 -6.7621582 25.83546387 -7.15478516 26.78100586 C-8.97663605 31.16715055 -10.80069758 35.55237451 -12.625 39.9375 C-12.9575882 40.73734314 -13.29017639 41.53718628 -13.63284302 42.36126709 C-17.42518623 51.47830988 -21.23695921 60.5862714 -25.11328125 69.66796875 C-25.60033539 70.81008064 -25.60033539 70.81008064 -26.097229 71.9752655 C-27.65378349 75.62359702 -29.21469584 79.26997964 -30.78173828 82.91381836 C-31.34288962 84.22635007 -31.90393105 85.53892879 -32.46484375 86.8515625 C-32.955896 87.99447754 -33.44694824 89.13739258 -33.95288086 90.31494141 C-35.1211097 92.83021814 -35.1211097 92.83021814 -35 95 C-15.2 95 4.6 95 25 95 C23.08563012 89.25689036 21.15444023 83.71319422 18.8125 78.16015625 C18.36355125 77.08485909 18.36355125 77.08485909 17.90553284 75.98783875 C16.94018005 73.67805588 15.97020183 71.37024972 15 69.0625 C14.33041568 67.46331331 13.66106557 65.86402854 12.99194336 64.26464844 C7.36568577 50.8272381 1.69909729 37.40667113 -4 24 C-4.66 24 -5.32 24 -6 24 Z " fill="#FFFFFF" transform="translate(1008,92)"/>
<path d="M0 0 C13.93481613 -1.50556237 13.93481613 -1.50556237 18.234375 1.62890625 C20.07399096 4.32002762 21.51560695 7.09695625 23 10 C24.65410836 12.66070861 26.39667843 15.2620901 28.125 17.875 C29.08027508 19.35408232 30.03333975 20.8345942 30.984375 22.31640625 C34.63764824 27.99621671 38.32125431 33.65618152 42.00439453 39.31665039 C44.85436748 43.69741517 47.70048953 48.08058772 50.5390625 52.46875 C51.11865723 53.36360107 51.69825195 54.25845215 52.29541016 55.18041992 C53.39794914 56.88286518 54.49926932 58.58610066 55.59912109 60.2902832 C58.6192518 64.94998246 61.73671034 69.50697803 65 74 C72.17346288 63.31267382 79.21453828 52.54345192 86.21875 41.74462891 C93.72667821 30.17608052 101.23563014 18.60734986 108.875 7.125 C109.28580811 6.5064917 109.69661621 5.8879834 110.11987305 5.25073242 C112.87607311 1.12392689 112.87607311 1.12392689 114 0 C116.53049402 -0.07313567 119.03304837 -0.09247527 121.5625 -0.0625 C122.62887695 -0.05573242 122.62887695 -0.05573242 123.71679688 -0.04882812 C125.47790013 -0.03700864 127.23896036 -0.01907263 129 0 C128.35680961 4.08023903 126.18478613 7.21353703 124 10.625 C123.35381714 11.6464209 123.35381714 11.6464209 122.69458008 12.68847656 C116.2617808 22.80550541 109.6508923 32.80934453 103.07470703 42.83349609 C100.08080578 47.40291233 97.10083517 51.98130384 94.125 56.5625 C93.60583008 57.36155762 93.08666016 58.16061523 92.55175781 58.98388672 C88.55892996 65.13263906 84.5752899 71.28734054 80.60009766 77.44750977 C80.18421387 78.09131592 79.76833008 78.73512207 79.33984375 79.3984375 C78.98269287 79.95192871 78.62554199 80.50541992 78.25756836 81.07568359 C77 83 77 83 74.8918457 85.32714844 C71.44185621 90.54347241 72.39428848 97.35631106 72.390625 103.3671875 C72.37563136 104.77110695 72.35890173 106.17500883 72.34051514 107.57888794 C72.29696118 111.25806522 72.27686949 114.93700461 72.26177979 118.61639404 C72.24216517 122.37721758 72.20020024 126.13778582 72.16015625 129.8984375 C72.08498367 137.26558845 72.03668236 144.63253843 72 152 C67.38 152 62.76 152 58 152 C58.04825928 150.21198975 58.09651855 148.42397949 58.14624023 146.58178711 C58.29002884 140.57053583 58.36098577 134.561824 58.38603115 128.54913998 C58.40368667 124.91448179 58.44755285 121.28470404 58.55883789 117.65161133 C59.14025414 97.86235044 56.90330022 84.53055013 43.98738098 68.55210876 C40.50620277 64.08173015 37.53816192 59.2769285 34.5 54.5 C33.25608881 52.58842173 32.01025179 50.678094 30.76171875 48.76953125 C28.22014814 44.87272126 25.68140262 40.97408949 23.14453125 37.07421875 C21.86726811 35.11192669 20.58992518 33.14968658 19.3125 31.1875 C18.69689209 30.24108643 18.08128418 29.29467285 17.44702148 28.31958008 C14.45834544 23.73392581 11.44919662 19.16438826 8.390625 14.625 C7.54697388 13.3716687 7.54697388 13.3716687 6.6862793 12.09301758 C5.62950092 10.52747295 4.56866983 8.96465386 3.50317383 7.4050293 C0 2.21872557 0 2.21872557 0 0 Z " fill="#FFFFFF" transform="translate(1071,93)"/>
</svg>
